<?xml version="1.0" encoding="UTF-8" standalone="no"?>
<svg
   fill="none"
   height="48"
   viewBox="0 0 48 48"
   width="48"
   version="1.1"
   id="svg4"
   sodipodi:docname="home.svg"
   inkscape:version="1.1.2 (b8e25be8, 2022-02-05)"
   xmlns:inkscape="http://www.inkscape.org/namespaces/inkscape"
   xmlns:sodipodi="http://sodipodi.sourceforge.net/DTD/sodipodi-0.dtd"
   xmlns="http://www.w3.org/2000/svg"
   xmlns:svg="http://www.w3.org/2000/svg">
  <defs
     id="defs8" />
  <sodipodi:namedview
     id="namedview6"
     pagecolor="#ffffff"
     bordercolor="#cccccc"
     borderopacity="1"
     inkscape:pageshadow="0"
     inkscape:pageopacity="1"
     inkscape:pagecheckerboard="0"
     showgrid="false"
     inkscape:zoom="10.979167"
     inkscape:cx="24.045541"
     inkscape:cy="24"
     inkscape:window-width="1280"
     inkscape:window-height="755"
     inkscape:window-x="0"
     inkscape:window-y="23"
     inkscape:window-maximized="0"
     inkscape:current-layer="svg4" />
  <path
     clip-rule="evenodd"
     d="m41.7083 23.794-17.6504-17.70831-17.76385 17.70591c-.39116.3899-.3922 1.0231-.00231 1.4143.38989.3911 1.02305.3922 1.41421.0023l2.29405-2.2866v18.0782c0 .5523.4477 1 1 1h9c.5523 0 1-.4477 1-1v-8.7408c0-.5522.4477-1 1-1h4c.5523 0 1 .4478 1 1v8.7408c0 .5523.4477 1 1 1h9c.5523 0 1-.4477 1-1v-18.0932l2.2917 2.2993c.3899.3911 1.0231.3922 1.4142.0023.3912-.3899.3922-1.0231.0024-1.4142zm-5.7083-2.894-11.9467-11.98588-12.0533 12.01398v19.0717h7v-7.7408c0-1.6568 1.3431-3 3-3h4c1.6569 0 3 1.3432 3 3v7.7408h7z"
     fill="#333"
     fill-rule="evenodd"
     id="path2" />
  <path
     style="fill:#ffffff;stroke-width:0.637571;stroke-linecap:round;stroke-linejoin:round"
     d="m 10.83871,41.929223 c -0.367402,-0.12104 -0.550315,-0.265653 -0.678991,-0.536818 -0.12403,-0.261374 -0.140744,-1.381482 -0.140744,-9.432466 v -9.135871 l -1.3049706,1.293849 c -1.2363282,1.225791 -1.3238952,1.293848 -1.6647433,1.293848 -0.4416214,0 -0.7431886,-0.199679 -0.9120971,-0.603934 -0.1103323,-0.264063 -0.1102438,-0.348185 6.344e-4,-0.602897 0.076181,-0.175005 3.7659031,-3.926338 9.0257576,-9.176471 l 8.896899,-8.8804554 8.83801,8.8804554 c 5.231305,5.256429 8.889957,9.001256 8.965302,9.176471 0.249796,0.580895 -0.223755,1.206831 -0.913028,1.206831 -0.340832,0 -0.428408,-0.06805 -1.663459,-1.292576 l -1.303688,-1.292575 -0.02405,9.26048 -0.02405,9.26048 -0.297698,0.29775 -0.297697,0.29775 -4.620709,0.0281 c -3.171287,0.01929 -4.727963,-0.0033 -4.962632,-0.07208 -0.679208,-0.198995 -0.654495,-0.01138 -0.705515,-5.356002 l -0.04554,-4.770706 -0.297453,-0.265701 -0.297451,-0.2657 H 24 21.589211 l -0.297451,0.2657 -0.297453,0.265701 -0.04554,4.766557 c -0.03567,3.732986 -0.07182,4.812667 -0.166724,4.979202 -0.261978,0.459702 -0.390774,0.471019 -5.272476,0.463277 -2.493829,-0.004 -4.595715,-0.02745 -4.670857,-0.0522 z m 8.215916,-6.111386 c 0.02674,-4.221301 0.02877,-4.261997 0.236259,-4.713473 0.263342,-0.57302 0.840381,-1.173286 1.430178,-1.487744 l 0.455408,-0.242806 H 24 26.823529 l 0.459065,0.242323 c 0.558495,0.294809 1.173664,0.943652 1.438995,1.517768 0.191465,0.414287 0.19755,0.541654 0.223785,4.683932 l 0.02697,4.258064 h 3.547984 3.547984 l -0.0049,-9.586337 -0.0049,-9.586338 L 30.065805,14.86403 24.0731,8.8248338 18.002414,14.851064 11.931729,20.877293 v 9.599304 9.599304 h 3.547984 3.547984 z"
     id="path862" />
</svg>
