<svg width="184" height="75" viewBox="0 0 184 75" fill="none" xmlns="http://www.w3.org/2000/svg">
<path d="M23.8304 34.2048H8.11437C7.31185 34.2048 6.43502 34.064 5.48389 33.7822C4.53275 33.5005 3.64849 33.0409 2.83111 32.4034C2.02859 31.751 1.35239 30.9133 0.80252 29.8903C0.267507 28.8524 0 27.5848 0 26.0873V18.2589C0 17.7103 0.0594459 17.1321 0.178338 16.5242C0.312091 15.9163 0.512721 15.3158 0.780228 14.7227C1.04773 14.1149 1.38955 13.5366 1.80567 12.988C2.23665 12.4395 2.74937 11.9576 3.34383 11.5425C3.95315 11.1273 4.65164 10.7937 5.4393 10.5417C6.22696 10.2896 7.11865 10.1636 8.11437 10.1636H23.8304V15.9459H8.11437C7.35643 15.9459 6.77684 16.1387 6.37558 16.5242C5.98918 16.9097 5.79598 17.5027 5.79598 18.3034V26.0873C5.79598 26.8434 5.99661 27.4217 6.39787 27.822C6.79913 28.2223 7.38616 28.4225 8.15895 28.4225H23.8304V34.2048Z" fill="white"/>
<path d="M55.6057 26.243C55.6057 27.0436 55.4645 27.9109 55.1822 28.845C54.8998 29.7643 54.4391 30.6242 53.8 31.4248C53.1759 32.2106 52.3511 32.8704 51.3256 33.4042C50.315 33.9379 49.0815 34.2048 47.6251 34.2048H37.1701C36.3675 34.2048 35.4981 34.064 34.5619 33.7822C33.6404 33.5005 32.7785 33.0483 31.976 32.4256C31.1883 31.7881 30.527 30.9652 29.992 29.957C29.4569 28.934 29.1894 27.696 29.1894 26.243C29.1894 25.4423 29.3306 24.575 29.613 23.6409C29.8954 22.7068 30.3486 21.8469 30.9728 21.0611C31.6119 20.2605 32.4367 19.5933 33.4473 19.0595C34.4727 18.5257 35.7136 18.2589 37.1701 18.2589H47.6251V23.7743H37.1701C36.3824 23.7743 35.7731 24.019 35.3421 24.5083C34.9111 24.9827 34.6956 25.5758 34.6956 26.2874C34.6956 27.0436 34.9408 27.6367 35.4313 28.0666C35.9365 28.4818 36.531 28.6893 37.2146 28.6893H47.6251C48.4128 28.6893 49.0221 28.4521 49.4531 27.9777C49.884 27.5032 50.0995 26.9102 50.0995 26.1985V18.1254C50.0995 17.3693 49.8618 16.7688 49.3862 16.324C48.9255 15.8792 48.3385 15.6568 47.6251 15.6568H34.8962V10.1636H47.6251C48.4276 10.1636 49.2896 10.3044 50.211 10.5861C51.1473 10.8678 52.0092 11.3275 52.7969 11.965C53.5994 12.5877 54.2682 13.4106 54.8032 14.4336C55.3382 15.4418 55.6057 16.6724 55.6057 18.1254V26.243Z" fill="white"/>
<path d="M83.9258 15.9459H70.8848C70.0971 15.9459 69.5027 16.1461 69.1014 16.5464C68.7002 16.9319 68.4995 17.5027 68.4995 18.2589V34.2048H62.7036V18.2589C62.7036 17.2655 62.8299 16.3759 63.0825 15.5901C63.3352 14.8043 63.6696 14.1149 64.0857 13.5218C64.5167 12.9139 65.0071 12.4024 65.557 11.9872C66.1068 11.5573 66.679 11.2089 67.2735 10.942C67.8828 10.6751 68.4921 10.4824 69.1014 10.3637C69.7256 10.2303 70.3052 10.1636 70.8402 10.1636H83.9258V15.9459Z" fill="white"/>
<path d="M116.615 26.0873C116.615 26.6359 116.548 27.2141 116.414 27.822C116.296 28.4299 116.102 29.0378 115.835 29.6456C115.567 30.2387 115.218 30.8095 114.787 31.3581C114.371 31.9067 113.858 32.396 113.249 32.8259C112.654 33.2411 111.963 33.5747 111.176 33.8267C110.388 34.0788 109.496 34.2048 108.501 34.2048H98.0456C97.4958 34.2048 96.9162 34.1455 96.3069 34.0269C95.6975 33.8934 95.0882 33.6933 94.4789 33.4264C93.8844 33.1595 93.3123 32.8185 92.7624 32.4034C92.2125 31.9734 91.7221 31.4619 91.2911 30.8688C90.875 30.2609 90.5406 29.5641 90.288 28.7783C90.0353 27.9777 89.909 27.0807 89.909 26.0873V0H95.705V26.0873C95.705 26.799 95.9279 27.3698 96.3737 27.7997C96.8196 28.2149 97.3769 28.4225 98.0456 28.4225H108.501C109.229 28.4225 109.794 28.2075 110.195 27.7775C110.611 27.3475 110.819 26.7841 110.819 26.0873V18.2589C110.819 17.5324 110.604 16.969 110.173 16.5686C109.742 16.1535 109.184 15.9459 108.501 15.9459H98.0456V10.1636H108.501C109.051 10.1636 109.63 10.2303 110.239 10.3637C110.849 10.4824 111.451 10.6751 112.045 10.942C112.654 11.2089 113.234 11.5573 113.784 11.9872C114.334 12.4024 114.817 12.9139 115.233 13.5218C115.649 14.1149 115.983 14.8043 116.236 15.5901C116.489 16.3759 116.615 17.2655 116.615 18.2589V26.0873Z" fill="white"/>
<path d="M150.062 26.0873C150.062 27.0807 149.936 27.9777 149.683 28.7783C149.431 29.5641 149.096 30.2609 148.68 30.8688C148.264 31.4619 147.781 31.9734 147.231 32.4034C146.681 32.8185 146.102 33.1595 145.492 33.4264C144.898 33.6933 144.289 33.8934 143.664 34.0269C143.055 34.1455 142.476 34.2048 141.926 34.2048H131.471C130.668 34.2048 129.791 34.064 128.84 33.7822C127.889 33.5005 127.005 33.0409 126.187 32.4034C125.385 31.751 124.709 30.9133 124.159 29.8903C123.624 28.8524 123.356 27.5848 123.356 26.0873V18.2589C123.356 16.7762 123.624 15.5234 124.159 14.5003C124.709 13.4625 125.385 12.6248 126.187 11.9872C127.005 11.3349 127.889 10.8678 128.84 10.5861C129.791 10.3044 130.668 10.1636 131.471 10.1636H141.926C143.412 10.1636 144.675 10.4305 145.715 10.9642C146.756 11.498 147.595 12.1726 148.234 12.988C148.873 13.7887 149.334 14.6634 149.616 15.6123C149.914 16.5612 150.062 17.4434 150.062 18.2589V26.0873ZM144.266 18.3034C144.266 17.5027 144.066 16.9097 143.664 16.5242C143.263 16.1387 142.684 15.9459 141.926 15.9459H131.515C130.742 15.9459 130.155 16.1461 129.754 16.5464C129.353 16.9319 129.152 17.5027 129.152 18.2589V26.0873C129.152 26.8434 129.353 27.4217 129.754 27.822C130.155 28.2223 130.742 28.4225 131.515 28.4225H141.926C142.713 28.4225 143.3 28.2223 143.687 27.822C144.073 27.4217 144.266 26.8434 144.266 26.0873V18.3034Z" fill="white"/>
<path d="M184 34.2048H178.204V20.8609C178.204 20.1048 178.07 19.4302 177.803 18.8371C177.55 18.2292 177.201 17.7103 176.755 17.2803C176.309 16.8504 175.782 16.5242 175.172 16.3018C174.578 16.0645 173.931 15.9459 173.233 15.9459H163.09V34.2048H157.294V13.0325C157.294 12.6322 157.368 12.2615 157.517 11.9205C157.665 11.5647 157.874 11.2607 158.141 11.0087C158.409 10.7418 158.721 10.5342 159.077 10.386C159.434 10.2377 159.813 10.1636 160.214 10.1636H173.277C174.006 10.1636 174.771 10.2451 175.574 10.4082C176.391 10.5713 177.193 10.8382 177.981 11.2089C178.784 11.5647 179.542 12.0243 180.255 12.5877C180.983 13.1363 181.622 13.8109 182.172 14.6115C182.737 15.3974 183.183 16.3092 183.51 17.347C183.837 18.3849 184 19.5562 184 20.8609V34.2048Z" fill="white"/>
<path d="M23.8304 64.5695H8.11437C7.31185 64.5695 6.43502 64.4287 5.48389 64.147C4.53275 63.8653 3.64849 63.4057 2.83111 62.7681C2.02859 62.1157 1.35239 61.278 0.80252 60.255C0.267507 59.2172 0 57.9495 0 56.452V48.6236C0 48.075 0.0594459 47.4968 0.178338 46.8889C0.312091 46.281 0.512721 45.6805 0.780228 45.0875C1.04773 44.4796 1.38955 43.9014 1.80567 43.3528C2.23665 42.8042 2.74937 42.3223 3.34383 41.9072C3.95315 41.492 4.65164 41.1584 5.4393 40.9064C6.22696 40.6543 7.11865 40.5283 8.11437 40.5283H23.8304V46.3107H8.11437C7.35643 46.3107 6.77684 46.5034 6.37558 46.8889C5.98918 47.2744 5.79598 47.8675 5.79598 48.6681V56.452C5.79598 57.2082 5.99661 57.7864 6.39787 58.1867C6.79913 58.587 7.38616 58.7872 8.15895 58.7872H23.8304V64.5695Z" fill="white"/>
<path d="M56.9433 56.452C56.9433 57.4454 56.8169 58.3424 56.5643 59.143C56.3116 59.9288 55.9773 60.6257 55.5611 61.2336C55.145 61.8266 54.662 62.3381 54.1121 62.7681C53.5623 63.1833 52.9827 63.5243 52.3733 63.7911C51.7789 64.058 51.1696 64.2582 50.5454 64.3916C49.9361 64.5102 49.3565 64.5695 48.8066 64.5695H38.3515C37.549 64.5695 36.6722 64.4287 35.7211 64.147C34.7699 63.8653 33.8857 63.4057 33.0683 62.7681C32.2658 62.1157 31.5896 61.278 31.0397 60.255C30.5047 59.2172 30.2372 57.9495 30.2372 56.452V48.6236C30.2372 47.141 30.5047 45.8881 31.0397 44.8651C31.5896 43.8272 32.2658 42.9895 33.0683 42.352C33.8857 41.6996 34.7699 41.2326 35.7211 40.9509C36.6722 40.6692 37.549 40.5283 38.3515 40.5283H48.8066C50.2927 40.5283 51.556 40.7952 52.5963 41.329C53.6366 41.8627 54.4762 42.5373 55.1153 43.3528C55.7543 44.1534 56.215 45.0282 56.4974 45.9771C56.7946 46.926 56.9433 47.8081 56.9433 48.6236V56.452ZM51.1473 48.6681C51.1473 47.8675 50.9466 47.2744 50.5454 46.8889C50.1441 46.5034 49.5645 46.3107 48.8066 46.3107H38.3961C37.6233 46.3107 37.0363 46.5108 36.635 46.9111C36.2338 47.2966 36.0331 47.8675 36.0331 48.6236V56.452C36.0331 57.2082 36.2338 57.7864 36.635 58.1867C37.0363 58.587 37.6233 58.7872 38.3961 58.7872H48.8066C49.5942 58.7872 50.1813 58.587 50.5677 58.1867C50.9541 57.7864 51.1473 57.2082 51.1473 56.452V48.6681Z" fill="white"/>
<path d="M90.7472 56.452C90.7472 57.4454 90.6208 58.3424 90.3682 59.143C90.1156 59.9288 89.7812 60.6257 89.3651 61.2336C88.9489 61.8266 88.4659 62.3381 87.9161 62.7681C87.3662 63.1833 86.7866 63.5243 86.1773 63.7911C85.5828 64.058 84.9809 64.2582 84.3716 64.3916C83.7623 64.5102 83.1827 64.5695 82.6328 64.5695H72.1778V58.7872H82.6328C83.4056 58.7872 83.9852 58.587 84.3716 58.1867C84.758 57.7864 84.9512 57.2082 84.9512 56.452V48.6681C84.9512 47.8675 84.7506 47.2744 84.3493 46.8889C83.9629 46.5034 83.3907 46.3107 82.6328 46.3107H72.2223C71.4347 46.3107 70.8402 46.5108 70.439 46.9111C70.0377 47.2966 69.8371 47.8675 69.8371 48.6236V72.0866H64.0411V48.6236C64.0411 47.6302 64.1674 46.7406 64.4201 45.9548C64.6727 45.169 65.0071 44.4796 65.4232 43.8865C65.8542 43.2786 66.3446 42.7671 66.8945 42.352C67.4444 41.922 68.0165 41.5736 68.611 41.3067C69.2203 41.0398 69.8296 40.8471 70.439 40.7285C71.0631 40.595 71.6427 40.5283 72.1778 40.5283H82.6328C83.6285 40.5283 84.5202 40.6543 85.3079 40.9064C86.0955 41.1584 86.7866 41.492 87.3811 41.9072C87.9904 42.3223 88.5031 42.8042 88.9192 43.3528C89.3502 43.9014 89.6994 44.4796 89.9669 45.0875C90.2345 45.6805 90.4277 46.281 90.5465 46.8889C90.6803 47.4968 90.7472 48.075 90.7472 48.6236V56.452Z" fill="white"/>
<path d="M124.551 66.8825C124.551 67.8759 124.425 68.7654 124.172 69.5513C123.919 70.3519 123.585 71.0487 123.169 71.6418C122.753 72.2497 122.27 72.7612 121.72 73.1763C121.17 73.6063 120.591 73.9547 119.981 74.2216C119.387 74.4885 118.785 74.6812 118.176 74.7998C117.566 74.9333 116.987 75 116.437 75H105.982V69.2177H116.437C117.21 69.2177 117.789 69.0175 118.176 68.6172C118.562 68.2169 118.755 67.6386 118.755 66.8825V40.5283H124.551V66.8825ZM116.437 64.5695H105.982C105.149 64.5695 104.258 64.4287 103.307 64.147C102.37 63.8653 101.494 63.4057 100.676 62.7681C99.8587 62.1157 99.1825 61.278 98.6475 60.255C98.1125 59.2172 97.845 57.9495 97.845 56.452V40.5283H103.641V56.452C103.641 57.2082 103.842 57.7864 104.243 58.1867C104.644 58.587 105.239 58.7872 106.026 58.7872H116.437V64.5695Z" fill="white"/>
</svg>
