<svg width="500" height="205" viewBox="0 0 500 205" fill="none" xmlns="http://www.w3.org/2000/svg">
<path d="M64.7565 93.4931H22.0499C19.8692 93.4931 17.4865 93.1081 14.9019 92.3381C12.3173 91.5682 9.91438 90.3119 7.69324 88.5692C5.51248 86.7861 3.67499 84.4964 2.18076 81.7001C0.72692 78.8633 0 75.3983 0 71.3052V49.9076C0 48.4081 0.161538 46.8276 0.484614 45.1661C0.848074 43.5045 1.39326 41.8632 2.12018 40.2422C2.8471 38.5806 3.77595 37.0001 4.90671 35.5006C6.07786 34.0012 7.47113 32.6841 9.0865 31.5494C10.7423 30.4146 12.6403 29.5028 14.7807 28.8139C16.9211 28.1249 19.3442 27.7805 22.0499 27.7805H64.7565V43.5855H22.0499C19.9903 43.5855 18.4153 44.1124 17.3249 45.1661C16.2749 46.2197 15.7499 47.8408 15.7499 50.0292V71.3052C15.7499 73.372 16.2951 74.9526 17.3855 76.0468C18.4759 77.141 20.0711 77.688 22.1711 77.688H64.7565V93.4931Z" fill="white"/>
<path d="M151.102 71.7308C151.102 73.9191 150.719 76.2899 149.952 78.843C149.184 81.3556 147.932 83.7061 146.196 85.8945C144.5 88.0424 142.258 89.8458 139.472 91.3047C136.726 92.7637 133.374 93.4931 129.416 93.4931H101.006C98.8248 93.4931 96.4623 93.1081 93.9181 92.3381C91.4143 91.5682 89.072 90.3321 86.8912 88.63C84.7508 86.8874 82.9537 84.6382 81.4999 81.8825C80.046 79.0862 79.3191 75.7023 79.3191 71.7308C79.3191 69.5424 79.7028 67.1716 80.4701 64.6185C81.2374 62.0653 82.4691 59.7148 84.1653 57.567C85.9018 55.3786 88.1431 53.5549 90.8893 52.096C93.6758 50.637 97.0479 49.9076 101.006 49.9076H129.416V64.9832H101.006C98.8652 64.9832 97.2094 65.6519 96.0383 66.9892C94.8671 68.286 94.2816 69.9071 94.2816 71.8523C94.2816 73.9191 94.9479 75.5402 96.2806 76.7154C97.6537 77.8502 99.269 78.4175 101.127 78.4175H129.416C131.556 78.4175 133.212 77.7691 134.383 76.4723C135.554 75.1754 136.14 73.5544 136.14 71.6092V49.5428C136.14 47.476 135.494 45.8347 134.202 44.619C132.95 43.4032 131.354 42.7953 129.416 42.7953H94.8268V27.7805H129.416C131.597 27.7805 133.939 28.1655 136.443 28.9355C138.987 29.7054 141.329 30.9617 143.47 32.7044C145.651 34.4064 147.468 36.6556 148.922 39.4519C150.376 42.2077 151.102 45.5713 151.102 49.5428V71.7308Z" fill="white"/>
<path d="M228.059 43.5855H192.622C190.481 43.5855 188.866 44.1326 187.776 45.2268C186.685 46.2805 186.14 47.8408 186.14 49.9076V93.4931H170.39V49.9076C170.39 47.1923 170.733 44.7608 171.42 42.6129C172.106 40.4651 173.015 38.5806 174.146 36.9596C175.317 35.298 176.65 33.8999 178.144 32.7651C179.638 31.5899 181.193 30.6375 182.808 29.9081C184.464 29.1786 186.12 28.6518 187.776 28.3276C189.472 27.9628 191.047 27.7805 192.501 27.7805H228.059V43.5855Z" fill="white"/>
<path d="M316.889 71.3052C316.889 72.8047 316.707 74.3852 316.344 76.0468C316.021 77.7083 315.496 79.3699 314.769 81.0314C314.042 82.6525 313.093 84.2127 311.922 85.7122C310.791 87.2116 309.397 88.549 307.742 89.7242C306.126 90.8589 304.248 91.7708 302.108 92.4597C299.968 93.1487 297.545 93.4931 294.839 93.4931H266.428C264.934 93.4931 263.359 93.331 261.703 93.0068C260.048 92.6421 258.392 92.095 256.736 91.3655C255.121 90.6361 253.566 89.704 252.072 88.5692C250.577 87.394 249.245 85.9958 248.074 84.3748C246.943 82.7133 246.034 80.8085 245.348 78.6607C244.661 76.4723 244.318 74.0205 244.318 71.3052V0H260.068V71.3052C260.068 73.2505 260.674 74.8107 261.885 75.986C263.097 77.1207 264.611 77.688 266.428 77.688H294.839C296.818 77.688 298.352 77.1004 299.443 75.9252C300.573 74.7499 301.139 73.2099 301.139 71.3052V49.9076C301.139 47.9218 300.553 46.3818 299.382 45.2876C298.211 44.1529 296.697 43.5855 294.839 43.5855H266.428V27.7805H294.839C296.333 27.7805 297.908 27.9628 299.564 28.3276C301.22 28.6518 302.855 29.1786 304.471 29.9081C306.126 30.6375 307.701 31.5899 309.196 32.7651C310.69 33.8999 312.002 35.298 313.133 36.9596C314.264 38.5806 315.172 40.4651 315.859 42.6129C316.546 44.7608 316.889 47.1923 316.889 49.9076V71.3052Z" fill="white"/>
<path d="M407.778 71.3052C407.778 74.0205 407.435 76.4723 406.748 78.6607C406.062 80.8085 405.153 82.7133 404.022 84.3748C402.892 85.9958 401.579 87.394 400.085 88.5692C398.591 89.704 397.016 90.6361 395.36 91.3655C393.744 92.095 392.089 92.6421 390.393 93.0068C388.737 93.331 387.162 93.4931 385.668 93.4931H357.257C355.076 93.4931 352.694 93.1081 350.109 92.3381C347.524 91.5682 345.122 90.3119 342.9 88.5692C340.72 86.7861 338.882 84.4964 337.388 81.7001C335.934 78.8633 335.207 75.3983 335.207 71.3052V49.9076C335.207 45.855 335.934 42.4306 337.388 39.6343C338.882 36.7975 340.72 34.5078 342.9 32.7651C345.122 30.982 347.524 29.7054 350.109 28.9355C352.694 28.1655 355.076 27.7805 357.257 27.7805H385.668C389.706 27.7805 393.139 28.5099 395.966 29.9689C398.793 31.4278 401.074 33.2717 402.811 35.5006C404.547 37.689 405.799 40.0801 406.567 42.6737C407.374 45.2674 407.778 47.6787 407.778 49.9076V71.3052ZM392.028 50.0292C392.028 47.8408 391.483 46.2197 390.393 45.1661C389.302 44.1124 387.727 43.5855 385.668 43.5855H357.378C355.278 43.5855 353.683 44.1326 352.593 45.2268C351.502 46.2805 350.957 47.8408 350.957 49.9076V71.3052C350.957 73.372 351.502 74.9526 352.593 76.0468C353.683 77.141 355.278 77.688 357.378 77.688H385.668C387.808 77.688 389.403 77.141 390.453 76.0468C391.503 74.9526 392.028 73.372 392.028 71.3052V50.0292Z" fill="white"/>
<path d="M500 93.4931H484.25V57.0199C484.25 54.953 483.887 53.1091 483.16 51.4881C482.473 49.8265 481.524 48.4081 480.313 47.2329C479.101 46.0576 477.667 45.1661 476.012 44.5582C474.396 43.9098 472.64 43.5855 470.741 43.5855H443.179V93.4931H427.429V35.6222C427.429 34.528 427.631 33.5149 428.035 32.5828C428.439 31.6102 429.004 30.7794 429.731 30.0904C430.458 29.361 431.306 28.7936 432.275 28.3884C433.245 27.9831 434.274 27.7805 435.365 27.7805H470.863C472.841 27.7805 474.921 28.0034 477.102 28.4491C479.323 28.8949 481.504 29.6244 483.644 30.6375C485.825 31.6102 487.885 32.8665 489.823 34.4064C491.802 35.9059 493.538 37.7498 495.033 39.9382C496.567 42.0861 497.779 44.5784 498.667 47.4152C499.556 50.252 500 53.4536 500 57.0199V93.4931Z" fill="white"/>
<path d="M64.7565 176.49H22.0499C19.8692 176.49 17.4865 176.105 14.9019 175.335C12.3173 174.565 9.91438 173.309 7.69324 171.566C5.51248 169.783 3.67499 167.493 2.18076 164.697C0.72692 161.86 0 158.395 0 154.302V132.905C0 131.405 0.161538 129.825 0.484614 128.163C0.848074 126.501 1.39326 124.86 2.12018 123.239C2.8471 121.578 3.77595 119.997 4.90671 118.498C6.07786 116.998 7.47113 115.681 9.0865 114.546C10.7423 113.412 12.6403 112.5 14.7807 111.811C16.9211 111.122 19.3442 110.777 22.0499 110.777H64.7565V126.582H22.0499C19.9903 126.582 18.4153 127.109 17.3249 128.163C16.2749 129.217 15.7499 130.838 15.7499 133.026V154.302C15.7499 156.369 16.2951 157.949 17.3855 159.044C18.4759 160.138 20.0711 160.685 22.1711 160.685H64.7565V176.49Z" fill="white"/>
<path d="M154.737 154.302C154.737 157.017 154.394 159.469 153.707 161.658C153.021 163.805 152.112 165.71 150.981 167.372C149.851 168.993 148.538 170.391 147.044 171.566C145.55 172.701 143.975 173.633 142.319 174.362C140.704 175.092 139.048 175.639 137.352 176.004C135.696 176.328 134.121 176.49 132.627 176.49H104.216C102.035 176.49 99.6527 176.105 97.0681 175.335C94.4835 174.565 92.0806 173.309 89.8595 171.566C87.6787 169.783 85.8412 167.493 84.347 164.697C82.8931 161.86 82.1662 158.395 82.1662 154.302V132.905C82.1662 128.852 82.8931 125.427 84.347 122.631C85.8412 119.794 87.6787 117.505 89.8595 115.762C92.0806 113.979 94.4835 112.702 97.0681 111.932C99.6527 111.162 102.035 110.777 104.216 110.777H132.627C136.665 110.777 140.098 111.507 142.925 112.966C145.752 114.425 148.033 116.269 149.77 118.498C151.506 120.686 152.758 123.077 153.526 125.671C154.333 128.264 154.737 130.676 154.737 132.905V154.302ZM138.987 133.026C138.987 130.838 138.442 129.217 137.352 128.163C136.261 127.109 134.686 126.582 132.627 126.582H104.337C102.237 126.582 100.642 127.13 99.5517 128.224C98.4614 129.277 97.9162 130.838 97.9162 132.905V154.302C97.9162 156.369 98.4614 157.949 99.5517 159.044C100.642 160.138 102.237 160.685 104.337 160.685H132.627C134.767 160.685 136.362 160.138 137.412 159.044C138.462 157.949 138.987 156.369 138.987 154.302V133.026Z" fill="white"/>
<path d="M246.596 154.302C246.596 157.017 246.252 159.469 245.566 161.658C244.879 163.805 243.971 165.71 242.84 167.372C241.709 168.993 240.397 170.391 238.902 171.566C237.408 172.701 235.833 173.633 234.177 174.362C232.562 175.092 230.926 175.639 229.271 176.004C227.615 176.328 226.04 176.49 224.546 176.49H196.135V160.685H224.546C226.646 160.685 228.221 160.138 229.271 159.044C230.321 157.949 230.846 156.369 230.846 154.302V133.026C230.846 130.838 230.3 129.217 229.21 128.163C228.16 127.109 226.605 126.582 224.546 126.582H196.256C194.116 126.582 192.501 127.13 191.41 128.224C190.32 129.277 189.775 130.838 189.775 132.905V197.037H174.025V132.905C174.025 130.189 174.368 127.758 175.055 125.61C175.741 123.462 176.65 121.578 177.78 119.957C178.952 118.295 180.284 116.897 181.779 115.762C183.273 114.587 184.828 113.634 186.443 112.905C188.099 112.176 189.754 111.649 191.41 111.325C193.106 110.96 194.681 110.777 196.135 110.777H224.546C227.251 110.777 229.674 111.122 231.815 111.811C233.955 112.5 235.833 113.412 237.449 114.546C239.104 115.681 240.498 116.998 241.628 118.498C242.799 119.997 243.748 121.578 244.475 123.239C245.202 124.86 245.727 126.501 246.05 128.163C246.414 129.825 246.596 131.405 246.596 132.905V154.302Z" fill="white"/>
<path d="M338.454 182.812C338.454 185.527 338.111 187.959 337.424 190.107C336.738 192.295 335.829 194.2 334.698 195.821C333.568 197.482 332.255 198.881 330.761 200.015C329.267 201.191 327.692 202.143 326.036 202.872C324.421 203.602 322.785 204.129 321.129 204.453C319.473 204.818 317.898 205 316.404 205H287.994V189.195H316.404C318.504 189.195 320.079 188.648 321.129 187.554C322.179 186.459 322.704 184.879 322.704 182.812V110.777H338.454V182.812ZM316.404 176.49H287.994C285.732 176.49 283.309 176.105 280.724 175.335C278.18 174.565 275.798 173.309 273.576 171.566C271.355 169.783 269.518 167.493 268.064 164.697C266.61 161.86 265.883 158.395 265.883 154.302V110.777H281.633V154.302C281.633 156.369 282.178 157.949 283.269 159.044C284.359 160.138 285.974 160.685 288.115 160.685H316.404V176.49Z" fill="white"/>
</svg>
