<?xml version="1.0" encoding="UTF-8" standalone="no"?>
<svg
   height="20"
   viewBox="0 0 20 20"
   width="20"
   version="1.1"
   id="svg6"
   sodipodi:docname="exit.svg"
   inkscape:version="1.1.2 (b8e25be8, 2022-02-05)"
   xmlns:inkscape="http://www.inkscape.org/namespaces/inkscape"
   xmlns:sodipodi="http://sodipodi.sourceforge.net/DTD/sodipodi-0.dtd"
   xmlns="http://www.w3.org/2000/svg"
   xmlns:svg="http://www.w3.org/2000/svg">
  <defs
     id="defs10" />
  <sodipodi:namedview
     id="namedview8"
     pagecolor="#ffffff"
     bordercolor="#cccccc"
     borderopacity="1"
     inkscape:pageshadow="0"
     inkscape:pageopacity="1"
     inkscape:pagecheckerboard="0"
     showgrid="false"
     inkscape:zoom="26.35"
     inkscape:cx="10.018975"
     inkscape:cy="10"
     inkscape:window-width="1280"
     inkscape:window-height="755"
     inkscape:window-x="0"
     inkscape:window-y="23"
     inkscape:window-maximized="0"
     inkscape:current-layer="svg6" />
  <path
     d="m11.5 8c.276 0 .5-.224.5-.5v-4c0-.827-.673-1.5-1.5-1.5h-9c-.827 0-1.5.673-1.5 1.5v12c0 .746.537 1.56 1.222 1.853l5.162 2.212c.178.076.359.114.532.114.213 0 .416-.058.589-.172.314-.207.495-.575.495-1.008v-1.5h2.5c.827 0 1.5-.673 1.5-1.5v-4c0-.276-.224-.5-.5-.5s-.5.224-.5.5v4c0 .276-.224.5-.5.5h-2.5v-9.5c0-.746-.537-1.56-1.222-1.853l-3.842-1.647h7.564c.276 0 .5.224.5.5v4c0 .276.224.5.5.5zm-5.116-2.434c.322.138.616.584.616.934v12c0 .104-.028.162-.045.173s-.081.014-.177-.027l-5.162-2.212c-.322-.138-.616-.583-.616-.934v-12c0-.079.018-.153.051-.22z"
     id="path2" />
  <path
     d="m18.354 9.146-3-3c-.195-.195-.512-.195-.707 0s-.195.512 0 .707l2.146 2.146h-6.293c-.276 0-.5.224-.5.5s.224.5.5.5h6.293l-2.146 2.146c-.195.195-.195.512 0 .707.098.098.226.146.354.146s.256-.049.354-.146l3-3c.195-.195.195-.512 0-.707z"
     id="path4" />
  <path
     style="fill:#ffffff;stroke-width:0.265655;stroke-linecap:round;stroke-linejoin:round"
     d="M 6.5275142,19.58545 C 6.3202478,19.51702 1.2932429,17.367837 1.0679714,17.251345 0.86628281,17.147048 0.48085913,16.756008 0.33085074,16.503483 0.25190781,16.37059 0.14944102,16.142315 0.10314674,15.996205 L 0.01897533,15.73055 V 9.5256167 c 0,-5.1145229 0.0090901,-6.2403153 0.05172669,-6.4062718 C 0.17889539,2.6982186 0.5490934,2.2956562 0.9973737,2.1116594 l 0.1980722,-0.081299 4.6679317,-0.011368 c 3.3853871,-0.00824 4.7301474,5.452e-4 4.8943704,0.031991 0.124542,0.023847 0.31036,0.085884 0.41293,0.1378602 0.226735,0.1148955 0.520878,0.4017314 0.628703,0.6130843 0.187166,0.3668772 0.193175,0.4506494 0.190887,2.6614537 -0.0016,1.499918 -0.01461,2.1060364 -0.04744,2.2013385 -0.12169,0.3533124 -0.630593,0.4066277 -0.846113,0.088643 -0.06813,-0.1005271 -0.07308,-0.2255605 -0.09102,-2.3009029 L 10.986717,3.257861 10.84496,3.1279817 10.703202,2.9981025 H 6.8063765 c -2.1432543,0 -3.8897098,0.0064 -3.8810128,0.014233 0.0087,0.00783 0.9038583,0.3945298 1.9892473,0.8593375 C 6,4.3364802 6.9563567,4.7640584 7.0398482,4.8218464 7.4179393,5.0835393 7.7587188,5.5492719 7.8951165,5.990715 c 0.072431,0.2344171 0.074523,0.3785298 0.074523,5.132827 v 4.891638 l 1.3377609,-1.52e-4 c 1.2576866,-1.51e-4 1.3449986,-0.0046 1.4586786,-0.07387 0.22671,-0.138235 0.218992,-0.06034 0.239614,-2.418506 0.01851,-2.117258 0.02088,-2.172537 0.09732,-2.277039 0.175922,-0.24048 0.463892,-0.28981 0.68348,-0.117082 0.205977,0.162022 0.205912,0.161267 0.205912,2.375497 0,1.222689 -0.01548,2.127596 -0.03848,2.249796 -0.0873,0.463747 -0.398117,0.863359 -0.834383,1.072751 l -0.24668,0.118397 -1.4492544,0.01077 -1.4492546,0.01077 -0.011846,0.95697 c -0.011845,0.956876 -0.011856,0.95699 -0.114693,1.151955 -0.2573401,0.487885 -0.7780638,0.689032 -1.3203029,0.51001 z m 0.4747336,-0.961162 c 0.011425,-0.04696 0.016019,-2.851992 0.010211,-6.233396 L 7.0018975,6.2428843 6.8892543,6.0395142 C 6.8273006,5.9276607 6.7102194,5.779315 6.6290732,5.7098571 6.4136588,5.5254704 1.0661379,3.2353276 1.0199235,3.3076685 1.0020162,3.3356994 0.9914885,6.1508539 0.99652865,9.5635674 l 0.009164,6.2049336 0.087891,0.164683 c 0.2121004,0.397416 0.171381,0.375955 3.0809891,1.623912 1.4715371,0.631156 2.7050828,1.148687 2.7412126,1.150069 0.037875,0.0015 0.074486,-0.03364 0.086462,-0.08288 z"
     id="path965" />
  <path
     style="fill:#ffffff;stroke-width:0.265655;stroke-linecap:round;stroke-linejoin:round"
     d="m 14.776725,12.906335 c -0.270095,-0.164696 -0.323273,-0.451087 -0.131648,-0.70899 0.06048,-0.08141 0.572943,-0.60911 1.138797,-1.172677 L 16.812698,10 13.570405,9.9810247 c -3.214853,-0.018815 -3.2432,-0.019647 -3.349423,-0.098315 -0.131321,-0.097255 -0.2240347,-0.3400617 -0.18668,-0.4888944 0.0149,-0.059382 0.08416,-0.165025 0.153893,-0.2347624 l 0.126796,-0.1267952 h 3.248576 c 1.786718,0 3.248577,-0.012442 3.248577,-0.027648 0,-0.015206 -0.512334,-0.5409957 -1.13852,-1.1684205 -1.136178,-1.1384261 -1.13852,-1.1411051 -1.13852,-1.3025097 0,-0.3169953 0.182675,-0.4995241 0.499923,-0.4995241 h 0.162135 l 1.602879,1.6012398 c 0.881584,0.8806818 1.622621,1.6488981 1.646748,1.7071474 0.02568,0.061998 0.03309,0.1651742 0.01788,0.2488551 -0.02276,0.1252188 -0.219806,0.3375888 -1.588782,1.7123593 -0.882495,0.88623 -1.615958,1.592474 -1.684918,1.622391 -0.165067,0.07161 -0.272764,0.06646 -0.414247,-0.01981 z"
     id="path1004" />
</svg>
