<svg width="13" height="12" viewBox="0 0 13 12" fill="none" xmlns="http://www.w3.org/2000/svg">
<path d="M6.49998 9.98889H6.50002C7.746 9.98864 8.95586 9.59734 9.93153 8.8778C10.9073 8.15816 11.5916 7.15234 11.8703 6.02398L11.8762 5.99995L11.8702 5.97592C11.5905 4.84845 10.9058 3.84374 9.93014 3.12505C8.95457 2.40646 7.74527 2.01585 6.5 2.01585C5.25473 2.01585 4.04543 2.40646 3.06986 3.12505C2.09416 3.84374 1.40948 4.84845 1.12977 5.97592L1.12381 5.99995L1.12974 6.02398C1.40843 7.15234 2.09268 8.15816 3.06847 8.8778C4.04414 9.59734 5.254 9.98864 6.49998 9.98889ZM6.5 1.1C9.68889 1.1 12.3344 3.2163 12.898 6.00001C12.335 8.78369 9.68891 10.9 6.5 10.9C3.31111 10.9 0.665602 8.7837 0.10199 5.99999C0.665013 3.21631 3.31109 1.1 6.5 1.1ZM6.5 8.4C5.80707 8.4 5.14395 8.14539 4.65618 7.69435C4.16867 7.24355 3.89642 6.63388 3.89642 6C3.89642 5.36612 4.16867 4.75645 4.65618 4.30565C5.14395 3.85461 5.80707 3.6 6.5 3.6C7.19293 3.6 7.85605 3.85461 8.34383 4.30565C8.83133 4.75645 9.10358 5.36612 9.10358 6C9.10358 6.63388 8.83133 7.24355 8.34383 7.69435C7.85605 8.14539 7.19293 8.4 6.5 8.4ZM6.5 7.48889C6.92246 7.48889 7.32903 7.33378 7.62996 7.05551C7.93114 6.77701 8.10199 6.39752 8.10199 6C8.10199 5.60248 7.93114 5.22299 7.62996 4.94449C7.32903 4.66622 6.92246 4.51111 6.5 4.51111C6.07754 4.51111 5.67097 4.66622 5.37004 4.94449C5.06886 5.22299 4.89801 5.60248 4.89801 6C4.89801 6.39752 5.06886 6.77701 5.37004 7.05551C5.67097 7.33378 6.07754 7.48889 6.5 7.48889Z" fill="white" stroke="#5F87EF" stroke-width="0.2"/>
<rect x="11.6066" width="1" height="15" rx="0.5" transform="rotate(45 11.6066 0)" fill="white" stroke="#5F87EF" stroke-width="0.2"/>
</svg>
