<svg width="864" height="433" viewBox="0 0 864 433" fill="none" xmlns="http://www.w3.org/2000/svg">
<line x1="72.25" y1="-1.09278e-08" x2="72.25" y2="433" stroke="#DADADA" stroke-opacity="0.35" stroke-width="0.5"/>
<line x1="360.25" y1="-1.09278e-08" x2="360.25" y2="433" stroke="#DADADA" stroke-opacity="0.35" stroke-width="0.5"/>
<line x1="648.25" y1="-1.09278e-08" x2="648.25" y2="433" stroke="#DADADA" stroke-opacity="0.35" stroke-width="0.5"/>
<line x1="216.25" y1="-1.09278e-08" x2="216.25" y2="433" stroke="#DADADA" stroke-opacity="0.35" stroke-width="0.5"/>
<line x1="504.25" y1="-1.09278e-08" x2="504.25" y2="433" stroke="#DADADA" stroke-opacity="0.35" stroke-width="0.5"/>
<line x1="792.25" y1="-1.09278e-08" x2="792.25" y2="433" stroke="#DADADA" stroke-opacity="0.35" stroke-width="0.5"/>
<line x1="144.25" y1="-1.09278e-08" x2="144.25" y2="433" stroke="#DADADA" stroke-opacity="0.35" stroke-width="0.5"/>
<line x1="432.25" y1="-1.09278e-08" x2="432.25" y2="433" stroke="#DADADA" stroke-opacity="0.35" stroke-width="0.5"/>
<line x1="720.25" y1="-1.09278e-08" x2="720.25" y2="433" stroke="#DADADA" stroke-opacity="0.35" stroke-width="0.5"/>
<line x1="288.25" y1="-1.09278e-08" x2="288.25" y2="433" stroke="#DADADA" stroke-opacity="0.35" stroke-width="0.5"/>
<line x1="576.25" y1="-1.09278e-08" x2="576.25" y2="433" stroke="#DADADA" stroke-opacity="0.35" stroke-width="0.5"/>
<line x1="864" y1="73.25" y2="73.25" stroke="#DADADA" stroke-opacity="0.35" stroke-width="0.5"/>
<line x1="864" y1="217.25" y2="217.25" stroke="#DADADA" stroke-opacity="0.35" stroke-width="0.5"/>
<line x1="864" y1="362.25" y2="362.25" stroke="#DADADA" stroke-opacity="0.35" stroke-width="0.5"/>
<line x1="864" y1="145.25" y2="145.25" stroke="#DADADA" stroke-opacity="0.35" stroke-width="0.5"/>
<line x1="864" y1="290.25" y2="290.25" stroke="#DADADA" stroke-opacity="0.35" stroke-width="0.5"/>
</svg>
