<?xml version="1.0" encoding="UTF-8" standalone="no"?>
<svg
   width="30"
   height="30"
   viewBox="0 0 30 30"
   fill="none"
   version="1.1"
   id="svg6"
   sodipodi:docname="dfsd.svg"
   inkscape:version="1.1.2 (b8e25be8, 2022-02-05)"
   xmlns:inkscape="http://www.inkscape.org/namespaces/inkscape"
   xmlns:sodipodi="http://sodipodi.sourceforge.net/DTD/sodipodi-0.dtd"
   xmlns="http://www.w3.org/2000/svg"
   xmlns:svg="http://www.w3.org/2000/svg">
  <defs
     id="defs10" />
  <sodipodi:namedview
     id="namedview8"
     pagecolor="#ffffff"
     bordercolor="#cccccc"
     borderopacity="1"
     inkscape:pageshadow="0"
     inkscape:pageopacity="1"
     inkscape:pagecheckerboard="0"
     showgrid="false"
     inkscape:zoom="17.566667"
     inkscape:cx="13.491461"
     inkscape:cy="15"
     inkscape:window-width="1280"
     inkscape:window-height="729"
     inkscape:window-x="19"
     inkscape:window-y="23"
     inkscape:window-maximized="0"
     inkscape:current-layer="svg6" />
  <path
     d="M0.5 10C0.5 4.75329 4.75329 0.5 10 0.5H20C25.2467 0.5 29.5 4.75329 29.5 10V20C29.5 25.2467 25.2467 29.5 20 29.5H10C4.75329 29.5 0.5 25.2467 0.5 20V10Z"
     stroke="white"
     id="path2" />
  <path
     d="M6.8277 7.82771C9.05494 5.60145 12.6176 5.5267 14.9343 7.60344L15.0011 7.66332L15.0678 7.60339C17.3775 5.52965 20.9471 5.59855 23.1722 7.8276C25.396 10.0573 25.4732 13.6076 23.4063 15.9243L14.999 24.3435L6.59375 15.9243C4.52677 13.6076 4.60505 10.0513 6.8277 7.82771ZM6.8277 7.82771L6.75701 7.75698L6.8277 7.82771ZM21.8978 9.09934L21.8978 9.09932C20.3602 7.55968 17.8797 7.49707 16.2702 8.94258L15.002 10.0807L13.7328 8.94352C12.1182 7.49606 9.64285 7.55972 8.1013 9.10127C6.57409 10.6285 6.49712 13.0731 7.90461 14.6887L7.90443 14.6888L7.90924 14.6936L14.9292 21.7246L15 21.7955L15.0708 21.7246L22.0908 14.6946L22.0909 14.6948L22.0954 14.6897C23.504 13.073 23.4268 10.6315 21.8978 9.09934Z"
     fill="white"
     stroke="#0047FF"
     stroke-width="0.2"
     id="path4" />
  <path
     style="fill:#ffffff;stroke:none;stroke-width:0.398482;stroke-linecap:round;stroke-linejoin:round"
     d="M 11.354269,17.940972 C 8.0693204,14.624235 7.6882006,14.220528 7.503018,13.86148 6.9679084,12.823963 6.8929778,11.714256 7.2854223,10.638933 8.1571014,8.2504752 11.018804,7.2956215 13.149905,8.6821524 c 0.203511,0.1324074 0.700267,0.5390721 1.103904,0.9036994 l 0.733885,0.6629592 0.159737,-0.12915 c 0.08786,-0.07103 0.449258,-0.3882514 0.803117,-0.7049325 0.353859,-0.316681 0.784272,-0.6650468 0.956473,-0.7741462 2.106718,-1.3347274 4.947931,-0.3570808 5.807556,1.9983507 0.392714,1.076058 0.317356,2.187881 -0.218417,3.222547 -0.185014,0.357292 -0.582369,0.779489 -3.84412,4.08444 -2.000777,2.027277 -3.640986,3.683732 -3.644908,3.68101 -0.0039,-0.0027 -1.647711,-1.661403 -3.652863,-3.685958 z"
     id="path3054" />
</svg>
