<?xml version="1.0" encoding="UTF-8" standalone="no"?>
<svg
   width="24"
   height="24"
   viewBox="0 0 24 24"
   fill="none"
   version="1.1"
   id="svg4"
   sodipodi:docname="home-icon.svg"
   inkscape:version="1.1.2 (b8e25be8, 2022-02-05)"
   xmlns:inkscape="http://www.inkscape.org/namespaces/inkscape"
   xmlns:sodipodi="http://sodipodi.sourceforge.net/DTD/sodipodi-0.dtd"
   xmlns="http://www.w3.org/2000/svg"
   xmlns:svg="http://www.w3.org/2000/svg">
  <defs
     id="defs8" />
  <sodipodi:namedview
     id="namedview6"
     pagecolor="#ffffff"
     bordercolor="#cccccc"
     borderopacity="1"
     inkscape:pageshadow="0"
     inkscape:pageopacity="1"
     inkscape:pagecheckerboard="0"
     showgrid="false"
     inkscape:zoom="21.958333"
     inkscape:cx="12.02277"
     inkscape:cy="12"
     inkscape:window-width="1280"
     inkscape:window-height="729"
     inkscape:window-x="37"
     inkscape:window-y="23"
     inkscape:window-maximized="0"
     inkscape:current-layer="svg4" />
  <path
     d="M11.336 2.253a1 1 0 0 1 1.328 0l9 8a1 1 0 0 1-1.328 1.494L20 11.45V19a2 2 0 0 1-2 2H6a2 2 0 0 1-2-2v-7.55l-.336.297a1 1 0 0 1-1.328-1.494l9-8zM6 9.67V19h3v-5a1 1 0 0 1 1-1h4a1 1 0 0 1 1 1v5h3V9.671l-6-5.333-6 5.333zM13 19v-4h-2v4h2z"
     fill="#0D0D0D"
     id="path2" />
  <path
     style="fill:#ffffff;stroke-width:0.318786;stroke-linecap:round;stroke-linejoin:round"
     d="M 5.6796224,20.946958 C 5.3546229,20.892316 4.9047355,20.663442 4.6452744,20.420746 4.3809342,20.173487 4.1230209,19.691682 4.0530758,19.314467 4.0250968,19.163576 4.0075901,17.596941 4.0075901,15.244054 v -3.825108 l -0.1935484,0.16573 c -0.3021022,0.258681 -0.5128477,0.353519 -0.7855787,0.353519 -0.7035142,0 -1.1786355,-0.723983 -0.8909449,-1.357608 0.069841,-0.153822 0.95689,-0.9640935 4.6783166,-4.2733903 2.5256744,-2.245968 4.6739073,-4.1257194 4.7738513,-4.1772253 0.239247,-0.1232958 0.581381,-0.1232958 0.820628,0 0.241671,0.1245445 9.312235,8.1975466 9.417151,8.3814716 0.11067,0.194012 0.147388,0.548623 0.07844,0.757541 -0.127665,0.38683 -0.522157,0.669211 -0.934899,0.669211 -0.276366,0 -0.45456,-0.0786 -0.75089,-0.331202 l -0.204934,-0.174694 -0.02277,3.972655 -0.02277,3.972655 -0.109175,0.273245 c -0.283695,0.710031 -0.85604,1.180302 -1.580977,1.299021 -0.326455,0.05346 -12.2809941,0.05069 -12.5998646,-0.0029 z M 9.027059,16.379681 9.039848,13.723308 9.1771735,13.501239 c 0.099958,-0.161642 0.2036075,-0.256695 0.3809119,-0.34932 L 9.801672,13.024668 H 12 14.198328 l 0.243586,0.127251 c 0.177305,0.09262 0.280954,0.187678 0.380912,0.34932 l 0.137326,0.222069 0.01279,2.656373 0.01279,2.656372 h 1.524213 1.524213 V 14.34792 9.659786 L 15.0476,7.004466 C 13.404995,5.54404 12.042608,4.3424556 12.020074,4.3342782 11.997541,4.3261009 10.626121,5.5221153 8.9724742,6.992088 L 5.9658444,9.6647654 v 4.6856436 4.685644 h 1.5242127 1.5242127 z m 3.997609,0.629807 V 14.982922 H 12 10.975332 v 2.026566 2.026565 H 12 13.024668 Z"
     id="path1261" />
</svg>
