<svg width="195" height="47" viewBox="0 0 195 47" fill="none" xmlns="http://www.w3.org/2000/svg">
<path d="M188.614 0.623047H156.223C152.981 0.623047 150.353 3.3848 150.353 6.79161V40.8314C150.353 44.2382 152.981 47 156.223 47H188.614C191.856 47 194.484 44.2382 194.484 40.8314V6.79161C194.484 3.3848 191.856 0.623047 188.614 0.623047Z" fill="#FF062E"/>
<path d="M166.684 23.8498L167.695 12.9408C167.693 12.937 167.692 12.9327 167.692 12.9283C167.692 12.9239 167.693 12.9196 167.695 12.9158H177.58L177.604 12.9408V16.4736H177.58H170.966L170.943 16.4987L170.58 21.0386C170.582 21.0417 170.585 21.0443 170.589 21.046C170.592 21.0477 170.595 21.0487 170.599 21.0487C170.603 21.0487 170.607 21.0477 170.61 21.046C170.613 21.0443 170.616 21.0417 170.618 21.0386C171.305 20.5368 172.119 20.2627 172.955 20.2519C173.704 20.2104 174.451 20.3611 175.132 20.6911C175.814 21.0212 176.408 21.5205 176.865 22.1461C177.78 23.4088 178.238 25.1961 178.238 27.5079C178.238 29.6693 177.693 31.4098 176.602 32.7293C176.066 33.3872 175.395 33.9091 174.639 34.2562C173.884 34.6033 173.063 34.7665 172.239 34.7337C170.897 34.7432 169.588 34.289 168.515 33.4409C168.329 33.2875 168.154 33.1201 167.991 32.9398C167.431 32.3469 166.988 31.6429 166.69 30.8686C166.391 30.0943 166.241 29.2653 166.251 28.4299C166.252 28.4228 166.255 28.4164 166.26 28.4118C166.266 28.4072 166.272 28.4047 166.279 28.4048H170.175C170.177 28.4086 170.178 28.413 170.178 28.4174C170.178 28.4218 170.177 28.4261 170.175 28.4299C170.194 29.173 170.413 29.8954 170.804 30.5145C170.959 30.7478 171.167 30.9378 171.408 31.0679C171.649 31.198 171.916 31.2643 172.187 31.2611C172.505 31.2637 172.817 31.1708 173.087 30.9933C173.356 30.8157 173.572 30.5609 173.708 30.2589C174.119 29.3181 174.302 28.2854 174.242 27.2523C174.305 26.2657 174.082 25.2821 173.603 24.4311C173.405 24.1251 173.136 23.8771 172.822 23.7105C172.507 23.5439 172.157 23.4643 171.806 23.479C171.474 23.4603 171.143 23.5245 170.839 23.6665C170.536 23.8085 170.269 24.0242 170.06 24.2958L169.817 24.6516H169.789L166.656 23.7997C166.656 23.7997 166.684 23.8598 166.684 23.8498Z" fill="white"/>
<path d="M3.59527 26.8008V33.3802H0V14.6741H6.06524C6.84245 14.6348 7.61886 14.7674 8.34417 15.0635C9.06948 15.3596 9.72752 15.8125 10.2756 16.3929C10.8059 16.9928 11.218 17.697 11.4881 18.465C11.7581 19.233 11.8809 20.0496 11.8492 20.8677C11.8893 21.6647 11.7719 22.4617 11.5044 23.2086C11.2368 23.9554 10.8249 24.636 10.2947 25.2073C9.2584 26.2696 7.82791 26.8008 6.00325 26.8008H3.59527ZM3.59527 23.6539H6.06524C6.36378 23.6723 6.66235 23.6181 6.93773 23.4956C7.21311 23.373 7.4579 23.1854 7.65309 22.9473C8.06488 22.3534 8.26412 21.6259 8.21574 20.8928C8.25475 20.1045 8.05437 19.3237 7.64354 18.6629C7.47223 18.4006 7.24214 18.1866 6.97355 18.0397C6.70496 17.8929 6.40613 17.8178 6.10339 17.821H3.59527V23.6539Z" fill="white"/>
<path d="M17.8382 30.2493H24.1514V33.3812H14.2429V14.675H17.8334L17.8382 30.2493Z" fill="white"/>
<path d="M34.9561 29.5528H30.0543L29.1006 33.3812H25.286L30.8458 14.675H34.1359L39.7339 33.3812H35.9193L34.9561 29.5528ZM30.8363 26.4058H34.1741L32.51 19.7362L30.8363 26.4058Z" fill="white"/>
<path d="M51.4785 17.822H47.0726V33.3561H43.4678V17.822H39.1382V14.675H51.4785V17.822Z" fill="white"/>
<path d="M60.5716 29.5528H55.6698L54.7161 33.3812H50.9015L56.4613 14.675H59.7514L65.3494 33.3812H61.5109L60.5716 29.5528ZM56.4518 26.4058H59.7896L58.1111 19.7362L56.4518 26.4058Z" fill="white"/>
<path d="M76.2304 25.7494H70.6229V33.3812H67.0276V14.675H76.8836V17.822H70.6229V22.6175H76.2304V25.7494Z" fill="white"/>
<path d="M91.489 25.7088C91.489 28.221 90.9247 30.1703 89.7963 31.5566C88.6678 32.943 87.1006 33.6379 85.0947 33.6412C83.0984 33.6412 81.5296 32.953 80.3884 31.5767C79.2472 30.2003 78.6559 28.2744 78.6146 25.799V22.6019C78.6146 20.033 79.1805 18.0286 80.3121 16.5887C80.8866 15.8695 81.6117 15.2998 82.4307 14.9242C83.2497 14.5487 84.1403 14.3774 85.0327 14.424C85.9156 14.3803 86.7963 14.549 87.6078 14.9172C88.4192 15.2854 89.14 15.8434 89.7152 16.5486C90.8532 17.9684 91.4318 19.9578 91.4508 22.5168L91.489 25.7088ZM87.8842 22.5769C87.8842 20.8865 87.6553 19.6321 87.1975 18.8136C86.9899 18.4178 86.6801 18.0917 86.3039 17.8727C85.9277 17.6538 85.5003 17.5509 85.0709 17.5759C84.6476 17.5502 84.2259 17.6479 83.8523 17.8584C83.4786 18.0689 83.1676 18.3839 82.9537 18.7685C82.4769 19.5603 82.2624 20.7729 82.2433 22.3815V25.7088C82.2433 27.349 82.4769 28.555 82.9442 29.3267C83.1715 29.7044 83.4907 30.0114 83.8688 30.2158C84.2469 30.4202 84.6702 30.5147 85.0947 30.4893C85.5082 30.5161 85.9209 30.4244 86.2887 30.2241C86.6565 30.0238 86.9656 29.7223 87.1832 29.3518C87.641 28.5968 87.8746 27.4276 87.8842 25.8441V22.5769Z" fill="white"/>
<path d="M99.4427 26.5462H97.6594V33.3812H94.0641V14.675H99.786C101.588 14.675 102.981 15.1645 103.963 16.1433C104.945 17.1221 105.436 18.5168 105.436 20.3275C105.436 22.8129 104.577 24.5518 102.857 25.544L105.975 33.2008V33.3812H102.108L99.4427 26.5462ZM97.6594 23.3992H99.7002C100.007 23.4195 100.313 23.3617 100.594 23.2309C100.874 23.1 101.121 22.8999 101.312 22.6476C101.694 22.0589 101.884 21.3551 101.851 20.6432C101.851 18.7657 101.155 17.827 99.7622 17.827H97.6594V23.3992Z" fill="white"/>
<path d="M112.613 14.675L115.974 28.2048L119.312 14.675H124.009V33.3812H120.399V28.3201L120.733 20.5229L117.176 33.3812H114.73L111.173 20.5229L111.502 28.3201V33.3812H107.906V14.675H112.613Z" fill="white"/>
<path d="M135.619 29.5528H130.717L129.764 33.3812H125.949L131.542 14.675H134.833L140.435 33.3812H136.592L135.619 29.5528ZM131.499 26.4058H134.837L133.173 19.7362L131.499 26.4058Z" fill="white"/>
<path d="M5.04974 44.3948C5.06809 45.1009 4.82541 45.787 4.37265 46.309C4.1361 46.5363 3.85836 46.7112 3.55604 46.8231C3.25373 46.935 2.93304 46.9817 2.61316 46.9604C2.26773 46.9823 1.92224 46.919 1.60429 46.7754C1.28634 46.6318 1.00479 46.412 0.782152 46.1336C0.320045 45.4482 0.096136 44.6167 0.147962 43.7785V42.5307C0.0969003 41.6903 0.329952 40.858 0.805988 40.1805C1.03003 39.9052 1.31113 39.6875 1.62772 39.5442C1.94431 39.4009 2.28796 39.3357 2.63225 39.3537C2.95286 39.3302 3.27458 39.3783 3.57621 39.4949C3.87785 39.6115 4.15255 39.7939 4.3822 40.0302C4.81484 40.5766 5.05409 41.2637 5.05929 41.9745H3.6288C3.64884 41.5984 3.56964 41.2239 3.39993 40.8921C3.30225 40.7826 3.18145 40.6988 3.04726 40.6475C2.91308 40.5961 2.76927 40.5786 2.62748 40.5965C2.46924 40.5814 2.31012 40.6127 2.16785 40.687C2.02557 40.7614 1.90572 40.8757 1.82163 41.0174C1.63173 41.4482 1.54496 41.9213 1.5689 42.3954V43.7935C1.53077 44.307 1.61091 44.8227 1.80254 45.2968C1.88784 45.4366 2.00822 45.549 2.15041 45.6215C2.2926 45.694 2.45109 45.7238 2.60838 45.7077C2.74938 45.726 2.8925 45.7097 3.02651 45.6601C3.16053 45.6106 3.2818 45.5291 3.38084 45.4221C3.55646 45.1086 3.641 44.7481 3.62403 44.3848L5.04974 44.3948Z" fill="#FF062E"/>
<path d="M12.1212 43.8237C12.1716 44.6548 11.9346 45.477 11.4536 46.1388C11.2222 46.4137 10.9349 46.6302 10.613 46.7725C10.291 46.9148 9.94279 46.9791 9.594 46.9606C9.24493 46.9793 8.89629 46.9157 8.57367 46.7744C8.25105 46.633 7.96266 46.4176 7.72962 46.1438C7.24659 45.4938 7.0028 44.6825 7.04298 43.8588V42.596C6.99424 41.7427 7.23218 40.8985 7.7153 40.2108C7.94287 39.9261 8.23003 39.7007 8.55429 39.552C8.87855 39.4033 9.23112 39.3355 9.58446 39.3539C9.93353 39.3365 10.2818 39.4033 10.6025 39.5492C10.9232 39.6951 11.2078 39.9163 11.4346 40.1957C11.9233 40.8716 12.1668 41.7084 12.1212 42.5559V43.8237ZM10.6907 42.586C10.7237 42.0687 10.6301 41.5512 10.4189 41.0827C10.3386 40.9241 10.2171 40.7928 10.0685 40.7041C9.91994 40.6154 9.75039 40.5729 9.57969 40.5816C9.41208 40.5712 9.24502 40.6097 9.09692 40.6928C8.94882 40.7759 8.82547 40.9004 8.74049 41.0526C8.53234 41.4955 8.43705 41.9876 8.46392 42.4808V43.7987C8.43249 44.2932 8.52627 44.7877 8.73572 45.2318C8.8271 45.3801 8.95419 45.5005 9.10408 45.5805C9.25397 45.6606 9.42134 45.6976 9.58923 45.6878C9.75214 45.698 9.91466 45.6619 10.0598 45.5835C10.2049 45.505 10.3273 45.387 10.4141 45.2418C10.6231 44.81 10.7186 44.3273 10.6907 43.8438V42.586Z" fill="#FF062E"/>
<path d="M14.3813 46.8603V39.4691H16.2458C16.6101 39.4505 16.974 39.5143 17.3129 39.656C17.6518 39.7978 17.9578 40.0143 18.2103 40.2909C18.7238 40.9151 18.9915 41.7215 18.9589 42.5459V43.7485C19.0051 44.5829 18.7419 45.4037 18.2246 46.0385C17.9642 46.3202 17.6495 46.5401 17.3017 46.6836C16.9538 46.8271 16.5808 46.8907 16.2076 46.8704L14.3813 46.8603ZM15.8118 40.7018V45.6176H16.241C16.4253 45.638 16.6115 45.6133 16.7852 45.5455C16.959 45.4777 17.1154 45.3686 17.2423 45.2268C17.4696 44.8139 17.5758 44.3398 17.5475 43.8638V42.5809C17.5875 42.0804 17.4916 41.5783 17.2709 41.1328C17.1566 40.9857 17.0102 40.8698 16.8442 40.7948C16.6782 40.7198 16.4975 40.6879 16.3173 40.7018H15.8118Z" fill="#FF062E"/>
<path d="M22.7017 46.8602H21.2712V39.469H22.7017V46.8602Z" fill="#FF062E"/>
<path d="M30.0596 46.8602H28.6291L26.5501 42.0046V46.8602H25.1196V39.469H26.5501L28.6386 44.3247V39.469H30.0691L30.0596 46.8602Z" fill="#FF062E"/>
<path d="M37.2259 46.0184C36.9473 46.3328 36.6028 46.5747 36.2198 46.725C35.7996 46.885 35.3555 46.9648 34.9085 46.9605C34.5546 46.9859 34.1997 46.9281 33.8697 46.7911C33.5398 46.6542 33.2431 46.4415 33.0012 46.1687C32.5111 45.5163 32.2636 44.6988 32.305 43.8687V42.5357C32.2546 41.6969 32.4802 40.8653 32.944 40.1806C33.1703 39.9002 33.4559 39.6793 33.778 39.5358C34.1001 39.3922 34.4497 39.3299 34.7988 39.3538C35.4282 39.3039 36.0506 39.5184 36.5297 39.9501C36.9618 40.465 37.2008 41.1276 37.2021 41.8142H35.8193C35.8213 41.4708 35.7231 41.135 35.5379 40.8521C35.4456 40.7603 35.3358 40.6901 35.2159 40.646C35.0959 40.602 34.9684 40.5851 34.8418 40.5965C34.6777 40.5834 34.5133 40.6176 34.3663 40.6953C34.2193 40.7729 34.0952 40.8913 34.0073 41.0375C33.8009 41.4737 33.7072 41.9593 33.7355 42.4456V43.7885C33.7001 44.2979 33.7991 44.8077 34.0216 45.2617C34.1282 45.4193 34.2726 45.5445 34.4401 45.6245C34.6075 45.7046 34.7922 45.7368 34.9753 45.7177C35.214 45.731 35.4512 45.67 35.6571 45.5424L35.7859 45.4522V44.0942H34.7893V42.9767H37.2116L37.2259 46.0184Z" fill="#FF062E"/>
<path d="M42.9908 46.8607V39.4695H45.17C45.767 39.4199 46.3611 39.5977 46.8436 39.9706C47.0399 40.1602 47.1931 40.3938 47.2922 40.6539C47.3912 40.9141 47.4335 41.1943 47.4158 41.4739C47.4254 41.8144 47.3445 42.151 47.1822 42.446C47.0295 42.7101 46.803 42.9183 46.5337 43.0423C46.837 43.1287 47.0977 43.3329 47.2632 43.6136C47.4431 43.933 47.5324 44.2999 47.5207 44.6709C47.5414 44.9691 47.5015 45.2685 47.4036 45.5493C47.3058 45.8301 47.1523 46.0858 46.9533 46.2995C46.4974 46.6967 45.9133 46.8941 45.3225 46.8507L42.9908 46.8607ZM44.4213 42.5512H45.1652C45.7231 42.5512 45.9996 42.2506 45.9996 41.6442C46.0233 41.3872 45.9554 41.13 45.8089 40.9226C45.7238 40.8429 45.624 40.7822 45.5158 40.7443C45.4076 40.7064 45.2932 40.692 45.1795 40.7022H44.4213V42.5512ZM44.4213 43.6436V45.618H45.3321C45.4409 45.6267 45.5502 45.6086 45.6512 45.5651C45.7522 45.5216 45.8421 45.4539 45.9138 45.3674C46.057 45.1639 46.1263 44.9133 46.1093 44.6609C46.1093 43.9994 45.8804 43.6587 45.4227 43.6587L44.4213 43.6436Z" fill="#FF062E"/>
<path d="M54.7447 43.8237C54.7905 44.6542 54.5539 45.4747 54.0772 46.1388C53.8458 46.4137 53.5585 46.6302 53.2365 46.7725C52.9146 46.9148 52.5664 46.9791 52.2176 46.9606C51.8685 46.9793 51.5199 46.9157 51.1972 46.7744C50.8746 46.633 50.5862 46.4176 50.3532 46.1438C49.8658 45.4962 49.6215 44.6831 49.6665 43.8588V42.596C49.6178 41.7427 49.8557 40.8985 50.3389 40.2108C50.5664 39.9261 50.8536 39.7007 51.1778 39.552C51.5021 39.4033 51.8547 39.3355 52.208 39.3539C52.557 39.3372 52.905 39.4044 53.2256 39.5502C53.5462 39.6961 53.8309 39.9169 54.0581 40.1957C54.5469 40.8716 54.7903 41.7084 54.7447 42.5559V43.8237ZM53.3143 42.586C53.3473 42.0687 53.2537 41.5512 53.0425 41.0827C52.9617 40.9245 52.8401 40.7936 52.6917 40.7049C52.5432 40.6162 52.3739 40.5735 52.2032 40.5816C52.0356 40.5706 51.8683 40.6088 51.7201 40.692C51.5719 40.7752 51.4486 40.9001 51.364 41.0526C51.1563 41.4958 51.0595 41.9873 51.0827 42.4808V43.7987C51.0525 44.2937 51.148 44.7883 51.3593 45.2318C51.4507 45.3801 51.5777 45.5005 51.7276 45.5805C51.8775 45.6606 52.0449 45.6976 52.2128 45.6878C52.3756 45.6969 52.5377 45.6604 52.6826 45.582C52.8276 45.5037 52.9501 45.3863 53.0377 45.2418C53.2467 44.81 53.3422 44.3273 53.3143 43.8438V42.586Z" fill="#FF062E"/>
<path d="M61.964 43.8237C62.0126 44.6553 61.7739 45.4774 61.2917 46.1388C61.0602 46.4137 60.7729 46.6302 60.451 46.7725C60.1291 46.9148 59.7808 46.9791 59.4321 46.9606C59.083 46.9793 58.7343 46.9157 58.4117 46.7744C58.0891 46.633 57.8007 46.4176 57.5676 46.1438C57.0846 45.4938 56.8408 44.6825 56.881 43.8588V42.596C56.8323 41.7427 57.0702 40.8985 57.5533 40.2108C57.7809 39.9261 58.068 39.7007 58.3923 39.552C58.7166 39.4033 59.0692 39.3355 59.4225 39.3539C59.7716 39.3365 60.1198 39.4033 60.4405 39.5492C60.7612 39.6951 61.0458 39.9163 61.2726 40.1957C61.7608 40.8721 62.0057 41.7081 61.964 42.5559V43.8237ZM60.5335 42.586C60.5665 42.0687 60.4729 41.5512 60.2617 41.0827C60.1819 40.9237 60.0605 40.7921 59.9118 40.7033C59.7631 40.6145 59.5933 40.5723 59.4225 40.5816C59.2555 40.571 59.089 40.6094 58.9416 40.6926C58.7943 40.7758 58.6718 40.9005 58.5881 41.0526C58.3781 41.495 58.2811 41.9871 58.3067 42.4808V43.7987C58.2742 44.2938 58.3698 44.7891 58.5833 45.2318C58.6743 45.3794 58.8006 45.4992 58.9495 45.5793C59.0985 45.6593 59.2649 45.6967 59.4321 45.6878C59.595 45.6985 59.7577 45.6627 59.9029 45.5842C60.0482 45.5057 60.1705 45.3874 60.257 45.2418C60.4684 44.8109 60.564 44.3275 60.5335 43.8438V42.586Z" fill="#FF062E"/>
<path d="M68.3727 40.7017H66.6275V46.8602H65.197V40.7017H63.4852V39.469H68.3679L68.3727 40.7017Z" fill="#FF062E"/>
<path d="M75.2008 44.3951C75.2142 45.1003 74.9722 45.7845 74.5236 46.3093C74.2871 46.5366 74.0093 46.7114 73.707 46.8233C73.4047 46.9353 73.084 46.982 72.7641 46.9607C72.4187 46.9826 72.0732 46.9192 71.7553 46.7756C71.4373 46.6321 71.1558 46.4123 70.9331 46.1339C70.4693 45.4491 70.2437 44.6175 70.2942 43.7787V42.531C70.2431 41.6906 70.4762 40.8582 70.9522 40.1808C71.1767 39.9048 71.4586 39.6867 71.7761 39.5433C72.0936 39.4 72.4382 39.3352 72.7832 39.354C73.1032 39.3298 73.4243 39.3777 73.7253 39.4943C74.0262 39.611 74.3 39.7938 74.5284 40.0305C74.9628 40.5762 75.2037 41.2633 75.2103 41.9747H73.7798C73.7998 41.5987 73.7206 41.2241 73.5509 40.8924C73.4528 40.7835 73.3319 40.7002 73.1978 40.6489C73.0638 40.5975 72.9202 40.5797 72.7785 40.5967C72.6195 40.5812 72.4596 40.6124 72.3165 40.6867C72.1734 40.761 72.0527 40.8756 71.9678 41.0176C71.7799 41.449 71.6948 41.922 71.7199 42.3957V43.7937C71.6818 44.3073 71.7619 44.8229 71.9536 45.297C72.0389 45.4369 72.1592 45.5492 72.3014 45.6217C72.4436 45.6942 72.6021 45.7241 72.7594 45.7079C72.9002 45.7236 73.0427 45.7061 73.1763 45.6567C73.3099 45.6073 73.4314 45.5272 73.5319 45.4223C73.7075 45.1089 73.792 44.7483 73.775 44.385L75.2008 44.3951Z" fill="#FF062E"/>
<path d="M80.6746 45.3419H78.7339L78.3572 46.8452H76.8552L79.0534 39.469H80.3552L82.5724 46.8703H81.0513L80.6746 45.3419ZM79.0439 44.0992H80.3599L79.7019 41.4734L79.0439 44.0992Z" fill="#FF062E"/>
<path d="M86.3251 39.469L87.6745 44.8107L88.981 39.469H90.8359V46.8703H89.4054V44.8659L89.5389 41.7791L88.1084 46.8703H87.1547L85.7672 41.769L85.9007 44.8558V46.8602H84.4702V39.469H86.3251Z" fill="#FF062E"/>
<path d="M94.6409 44.2542V46.8599H93.2104V39.4687H95.5946C95.902 39.4529 96.2091 39.5055 96.4958 39.6229C96.7826 39.7403 97.0425 39.92 97.2587 40.1502C97.4685 40.3871 97.6313 40.6655 97.7378 40.9692C97.8442 41.2729 97.8921 41.5957 97.8786 41.9191C97.8942 42.2334 97.848 42.5478 97.743 42.8426C97.638 43.1375 97.4764 43.4064 97.2683 43.6328C97.038 43.8521 96.7684 44.0208 96.4753 44.1293C96.1822 44.2377 95.8714 44.2836 95.5612 44.2642L94.6409 44.2542ZM94.6409 43.0115H95.5946C95.7122 43.0178 95.8296 42.9958 95.9378 42.9472C96.0461 42.8986 96.1423 42.8246 96.2192 42.7308C96.3845 42.4975 96.4641 42.2092 96.4434 41.9191C96.4597 41.6068 96.3794 41.2974 96.2145 41.0371C96.148 40.9327 96.0578 40.8474 95.9521 40.7888C95.8464 40.7302 95.7284 40.7001 95.6089 40.7014H94.6171L94.6409 43.0115Z" fill="#FF062E"/>
</svg>
