<svg width="22" height="22" viewBox="0 0 22 22" fill="none" xmlns="http://www.w3.org/2000/svg">
<path d="M18.6366 4.51821L16.8337 6.32107L15.679 5.16632L17.4823 3.36306L18.6366 4.51821ZM11.0001 16.4C9.56791 16.4 8.1944 15.8311 7.1817 14.8184C6.16901 13.8057 5.60008 12.4322 5.60008 11C5.60008 9.56782 6.16901 8.19431 7.1817 7.18161C8.1944 6.16892 9.56791 5.59999 11.0001 5.59999C12.4323 5.59999 13.8058 6.16892 14.8185 7.18161C15.8312 8.19431 16.4001 9.56782 16.4001 11C16.4001 12.4322 15.8312 13.8057 14.8185 14.8184C13.8058 15.8311 12.4323 16.4 11.0001 16.4ZM11.0001 14.7667C11.9991 14.7667 12.9571 14.3698 13.6635 13.6634C14.3699 12.957 14.7667 11.999 14.7667 11C14.7667 10.001 14.3699 9.04294 13.6635 8.33655C12.9571 7.63017 11.9991 7.23332 11.0001 7.23332C10.0011 7.23332 9.04303 7.63017 8.33665 8.33655C7.63026 9.04294 7.23341 10.001 7.23341 11C7.23341 11.999 7.63026 12.957 8.33665 13.6634C9.04303 14.3698 10.0011 14.7667 11.0001 14.7667ZM10.1834 1.01666H11.8167V3.56666H10.1834V1.01666ZM11.8167 18.4333V20.9833H10.1834V18.4333H11.8167ZM5.1664 6.32108L3.36314 4.51868L4.51833 3.36349L6.32116 5.16632L5.1664 6.32108ZM15.679 16.8337L16.8337 15.6789L18.6366 17.4817L17.4818 18.6365L15.679 16.8337ZM5.16641 15.6789L6.32116 16.8337L4.51833 18.6365L3.36359 17.4817L5.16641 15.6789ZM20.9834 11.8167H18.4334V10.1833H20.9834V11.8167ZM3.56675 10.1833V11.8167H1.01675V10.1833H3.56675Z" fill="white" stroke="#5F87EF" stroke-width="0.2"/>
</svg>
